<?xml version="1.0" encoding="UTF-8" standalone="no"?>
<!-- Created with Inkscape (http://www.inkscape.org/) -->

<svg
   xmlns:svg="http://www.w3.org/2000/svg"
   xmlns="http://www.w3.org/2000/svg"
   version="1.2"
   width="612"
   height="792"
   viewBox="0 0 612 792"
   id="Layer_1"
   xml:space="preserve"><defs
   id="defs7" />
    
    <path
   d="m 190.4,272.25 c 0.267,-0.6 0.633,-1.1 1.1,-1.5 0.667,-0.634 1.566,-1.033 2.7,-1.2 0.434,-0.066 0.916,-0.083 1.45,-0.05 0.399,-0.033 0.833,-0.017 1.3,0.05 0.467,0.033 0.967,0.101 1.5,0.2 0.866,0.134 1.816,0.333 2.85,0.6 1,0.233 2.101,0.551 3.3,0.95 1.167,0.367 2.45,0.8 3.851,1.3 1.399,0.467 2.883,1.018 4.45,1.65 l 18.199,6.1 6.301,1.25 16.05,1.601 60,0.75 59.3,-0.101 43.65,1.551 44.199,6.55 29.9,7.35 c 2.066,0.601 4.116,1.233 6.15,1.9 2,0.633 3.983,1.283 5.949,1.95 1.934,0.666 3.867,1.35 5.801,2.05 1.899,0.667 3.783,1.366 5.649,2.1 l 7.45,2.75 8.25,1.7 20.65,2.05 29.1,6.4 c 8.6,1.733 16.467,3.467 23.6,5.2 7.101,1.699 13.434,3.399 19,5.1 5.567,1.667 10.4,3.333 14.5,5 4.067,1.667 7.4,3.333 10,5 0.5,0.3 0.967,0.6 1.4,0.9 0.4,0.267 0.767,0.55 1.1,0.85 0.334,0.267 0.65,0.55 0.95,0.85 0.267,0.301 0.517,0.617 0.75,0.95 0.233,0.333 0.467,0.717 0.7,1.15 0.2,0.399 0.4,0.85 0.6,1.35 0.2,0.5 0.417,1.083 0.65,1.75 l 2.95,9.101 -2,2.8 c -0.467,0.566 -0.917,1.1 -1.351,1.6 -0.467,0.467 -0.949,0.9 -1.449,1.3 -0.268,0.167 -0.533,0.334 -0.801,0.5 -0.3,0.167 -0.6,0.334 -0.899,0.5 -0.333,0.134 -0.667,0.268 -1,0.4 -0.367,0.133 -0.75,0.25 -1.15,0.35 -0.399,0.101 -0.833,0.2 -1.3,0.301 l -1.45,0.3 -28.7,2.2 -9.85,2.949 c -1.767,0.601 -3.566,1.2 -5.4,1.801 -1.833,0.6 -3.699,1.217 -5.6,1.85 l -36.95,10.6 -39.399,9.347 -31.4,6 -17,2.55 c -1.8,0.233 -3.55,0.45 -5.25,0.65 -1.733,0.199 -3.4,0.383 -5,0.55 l -6.55,0.85 c -0.533,0.067 -1,0.167 -1.4,0.3 -0.434,0.101 -0.816,0.217 -1.149,0.351 -0.334,0.1 -0.617,0.217 -0.851,0.35 -0.5,0.267 -0.866,0.567 -1.1,0.9 -0.367,0.467 -0.75,1.017 -1.15,1.649 l -17.3,29.051 -13.2,24.6 0.351,10.25 c 0,0.767 0,1.434 0,2 0,0.533 -0.034,1 -0.101,1.4 -0.066,0.399 -0.166,0.732 -0.3,1 -0.267,0.467 -0.684,0.75 -1.25,0.85 -0.233,0 -0.483,0.017 -0.75,0.05 -0.467,0 -1,-0.033 -1.6,-0.1 h -0.2 c -0.233,-0.033 -0.483,0 -0.75,0.1 -0.3,0.067 -0.601,0.167 -0.9,0.3 -0.366,0.167 -0.75,0.384 -1.149,0.65 -0.434,0.233 -0.867,0.517 -1.301,0.85 -0.433,0.334 -0.899,0.7 -1.399,1.101 -0.5,0.399 -1,0.85 -1.5,1.35 -0.5,0.467 -1.017,0.983 -1.55,1.55 -0.567,0.567 -1.117,1.15 -1.65,1.75 -0.566,0.634 -1.134,1.283 -1.7,1.95 -0.6,0.667 -1.184,1.367 -1.75,2.101 -0.6,0.732 -1.184,1.482 -1.75,2.25 -0.6,0.767 -1.2,1.566 -1.8,2.399 -0.667,0.934 -1.35,1.867 -2.05,2.8 -0.7,0.9 -1.417,1.817 -2.15,2.75 -0.733,0.9 -1.467,1.783 -2.2,2.65 -0.767,0.867 -1.517,1.733 -2.25,2.6 -0.767,0.834 -1.533,1.65 -2.3,2.45 -0.767,0.8 -1.533,1.583 -2.3,2.351 -0.767,0.767 -1.533,1.517 -2.3,2.25 -0.767,0.699 -1.517,1.383 -2.25,2.05 -0.767,0.633 -1.517,1.25 -2.25,1.85 -0.733,0.601 -1.45,1.167 -2.15,1.7 -0.733,0.5 -1.434,0.983 -2.1,1.45 -0.7,0.433 -1.367,0.85 -2,1.25 -0.533,0.3 -1.033,0.566 -1.5,0.8 -0.5,0.233 -0.95,0.45 -1.351,0.65 -0.433,0.199 -0.866,0.383 -1.3,0.55 -0.434,0.133 -0.85,0.267 -1.25,0.399 -0.399,0.101 -0.833,0.184 -1.3,0.25 -0.434,0.067 -0.884,0.134 -1.35,0.2 -0.5,0.033 -1.017,0.067 -1.551,0.101 l -1.949,0.05 c -0.9,-0.033 -1.733,-0.067 -2.5,-0.101 -0.801,-0.033 -1.517,-0.1 -2.15,-0.199 -0.7,-0.101 -1.333,-0.217 -1.9,-0.351 -0.6,-0.133 -1.133,-0.3 -1.6,-0.5 -0.5,-0.2 -0.95,-0.433 -1.35,-0.7 -0.4,-0.267 -0.75,-0.566 -1.051,-0.899 -0.333,-0.333 -0.616,-0.7 -0.85,-1.101 -0.267,-0.399 -0.5,-0.833 -0.7,-1.3 -0.666,-1.6 -0.883,-3.45 -0.649,-5.55 0.233,-2.133 0.933,-4.533 2.1,-7.2 1.134,-2.7 2.767,-5.7 4.9,-9 1.033,-1.667 2.199,-3.417 3.5,-5.25 1.3,-1.833 2.716,-3.75 4.25,-5.75 1.399,-1.866 2.767,-3.683 4.1,-5.45 1.333,-1.767 2.6,-3.5 3.8,-5.199 1.2,-1.7 2.334,-3.334 3.4,-4.9 3.233,-4.833 6.033,-9.4 8.399,-13.7 2.367,-4.333 4.367,-8.566 6,-12.7 1.601,-4.166 2.934,-8.35 4,-12.55 l 3.351,-10.6 c 0.2,-0.5 0.383,-0.917 0.55,-1.25 l 1.8,-3.55 -68.75,-3.2 -33.5,-3.25 -22.25,-3.601 c -2,-0.399 -3.934,-0.816 -5.8,-1.25 -1.9,-0.433 -3.7,-0.866 -5.4,-1.3 -1.733,-0.467 -3.416,-0.95 -5.05,-1.45 -1.633,-0.467 -3.2,-0.949 -4.7,-1.449 -4.233,-1.467 -8.5,-2.851 -12.8,-4.15 -4.366,-1.333 -8.733,-2.583 -13.1,-3.75 -4.367,-1.167 -8.816,-2.283 -13.351,-3.35 -4.5,-1.067 -9.05,-2.067 -13.649,-3 -4.601,-0.967 -9.267,-1.867 -14,-2.7 -4.767,-0.833 -9.566,-1.601 -14.4,-2.3 -4.866,-0.7 -9.816,-1.351 -14.85,-1.95 -5.033,-0.601 -10.134,-1.15 -15.3,-1.65 -1.167,-0.1 -2.434,-0.2 -3.801,-0.3 l -50.55,-1.15 -23.25,0.5 L 41.2,377.1 c -0.601,0.067 -1.167,0.134 -1.7,0.2 -0.533,0.067 -1.017,0.167 -1.45,0.3 -0.434,0.101 -0.85,0.217 -1.25,0.351 -0.399,0.1 -0.75,0.233 -1.05,0.399 -0.333,0.167 -0.65,0.351 -0.95,0.551 -0.333,0.199 -0.633,0.433 -0.899,0.699 -0.267,0.233 -0.534,0.518 -0.801,0.851 -0.3,0.3 -0.583,0.633 -0.85,1 l -4.15,6.25 c -0.6,0.899 -1.267,1.866 -2,2.899 -0.767,1.033 -1.583,2.117 -2.449,3.25 -0.867,1.134 -1.784,2.317 -2.75,3.551 -0.967,1.166 -1.967,2.383 -3,3.649 -1.034,1.233 -2.084,2.467 -3.15,3.7 -1.066,1.233 -2.15,2.45 -3.25,3.65 -1.1,1.199 -2.167,2.383 -3.2,3.55 -1.066,1.133 -2.116,2.233 -3.149,3.3 -1.034,1.033 -2.017,2.033 -2.95,3 -0.967,0.9 -1.867,1.75 -2.7,2.55 -0.866,0.767 -1.65,1.45 -2.35,2.05 -0.733,0.601 -1.384,1.084 -1.95,1.45 l -2.8,1.851 c -0.967,0.6 -1.9,1.183 -2.801,1.75 l -2.75,1.649 c -0.899,0.533 -1.783,1.05 -2.649,1.55 -0.9,0.467 -1.767,0.934 -2.601,1.4 -0.866,0.434 -1.716,0.867 -2.55,1.3 -0.833,0.4 -1.649,0.783 -2.45,1.15 -0.8,0.366 -1.566,0.717 -2.3,1.05 -0.8,0.3 -1.55,0.6 -2.25,0.9 -0.733,0.267 -1.434,0.517 -2.1,0.75 l -3.2,0.949 -6.65,1.101 h -1.35 c -0.634,-0.067 -1.116,-0.167 -1.45,-0.3 -0.366,-0.167 -0.55,-0.384 -0.55,-0.65 -0.033,-0.1 0.05,-0.25 0.25,-0.45 0.134,-0.233 0.366,-0.5 0.7,-0.8 0.267,-0.3 0.616,-0.617 1.05,-0.95 0.4,-0.366 0.85,-0.733 1.35,-1.1 l 1.5,-1.2 c 0.767,-0.566 1.517,-1.15 2.25,-1.75 0.733,-0.566 1.434,-1.15 2.101,-1.75 0.633,-0.6 1.267,-1.2 1.899,-1.8 0.601,-0.634 1.167,-1.25 1.7,-1.851 0.533,-0.633 1.066,-1.283 1.601,-1.949 0.5,-0.7 0.983,-1.4 1.449,-2.101 0.467,-0.7 0.917,-1.417 1.351,-2.149 0.434,-0.768 0.866,-1.551 1.3,-2.351 l 1.4,-3.149 1.05,-4.4 1.5,-19.9 c 0.066,-0.8 0.149,-1.517 0.25,-2.149 0.1,-0.667 0.2,-1.283 0.3,-1.851 0.1,-0.566 0.217,-1.066 0.35,-1.5 0.101,-0.467 0.233,-0.883 0.4,-1.25 0.134,-0.399 0.283,-0.75 0.45,-1.05 l 0.8,-1.75 c 0.167,-0.533 0.283,-1.017 0.35,-1.45 0.034,-0.433 0,-0.866 -0.1,-1.3 -0.066,-0.267 -0.134,-0.517 -0.2,-0.75 l -0.3,-0.8 c -0.167,-0.4 -0.3,-0.816 -0.4,-1.25 -0.133,-0.467 -0.216,-0.9 -0.25,-1.3 -0.066,-0.467 -0.083,-0.884 -0.05,-1.25 0,-0.4 0.05,-0.733 0.15,-1 0.1,-0.333 0.066,-0.75 -0.101,-1.25 -0.166,-0.5 -0.433,-1.067 -0.8,-1.7 -0.2,-0.3 -0.416,-0.617 -0.649,-0.95 -0.233,-0.333 -0.483,-0.667 -0.75,-1 -0.267,-0.366 -0.551,-0.717 -0.851,-1.05 l -3,-3.1 c -0.366,-0.334 -0.717,-0.65 -1.05,-0.95 -0.366,-0.333 -0.733,-0.634 -1.1,-0.9 -0.367,-0.3 -0.733,-0.566 -1.101,-0.8 -0.333,-0.233 -0.666,-0.45 -1,-0.65 -0.366,-0.232 -0.7,-0.416 -1,-0.55 -0.333,-0.167 -0.649,-0.3 -0.95,-0.399 -0.5,-0.167 -0.966,-0.351 -1.399,-0.551 -0.467,-0.199 -0.867,-0.399 -1.2,-0.6 -0.366,-0.2 -0.667,-0.383 -0.9,-0.55 -0.267,-0.2 -0.433,-0.367 -0.5,-0.5 -0.1,-0.267 -0.017,-0.55 0.25,-0.851 0.233,-0.333 0.65,-0.666 1.25,-1 0.301,-0.199 0.634,-0.383 1,-0.55 0.367,-0.2 0.784,-0.399 1.25,-0.6 l 11.2,-3.601 c 1,-0.267 2.017,-0.5 3.05,-0.699 1.034,-0.2 2.101,-0.367 3.2,-0.5 1.066,-0.134 2.167,-0.25 3.3,-0.351 1.101,-0.1 2.233,-0.183 3.4,-0.25 h 6.85 c 1.134,0.033 2.267,0.101 3.4,0.2 1.133,0.099 2.25,0.233 3.35,0.4 1.101,0.133 2.184,0.283 3.25,0.449 1.067,0.2 2.117,0.417 3.15,0.65 1,0.233 1.983,0.5 2.95,0.8 0.934,0.267 1.85,0.567 2.75,0.9 l 7.399,2.75 6.45,-6.95 c 0.7,-0.8 1.4,-1.533 2.101,-2.2 0.699,-0.7 1.383,-1.35 2.05,-1.95 0.633,-0.6 1.267,-1.149 1.899,-1.649 0.634,-0.5 1.25,-0.95 1.851,-1.351 0.6,-0.433 1.2,-0.8 1.8,-1.1 0.566,-0.333 1.134,-0.617 1.7,-0.85 l 4.2,-2.2 c 0.466,-0.3 0.899,-0.567 1.3,-0.8 0.399,-0.268 0.767,-0.518 1.1,-0.75 0.3,-0.268 0.566,-0.5 0.8,-0.7 0.267,-0.233 0.584,-0.467 0.95,-0.7 0.367,-0.267 0.8,-0.517 1.3,-0.75 0.467,-0.233 0.983,-0.467 1.551,-0.7 L 66,328.5 l 6.15,-2.7 1.5,-0.899 6.199,-2.9 3.25,-1.05 c 0.434,-0.134 0.884,-0.283 1.351,-0.45 0.467,-0.167 0.934,-0.333 1.399,-0.5 0.467,-0.2 0.917,-0.383 1.351,-0.55 0.399,-0.2 0.783,-0.4 1.149,-0.601 0.367,-0.199 0.7,-0.399 1,-0.6 0.301,-0.2 0.534,-0.383 0.7,-0.55 0.233,-0.2 0.5,-0.4 0.8,-0.601 0.301,-0.199 0.634,-0.366 1,-0.5 0.367,-0.166 0.733,-0.316 1.101,-0.449 0.366,-0.134 0.75,-0.217 1.149,-0.25 0.367,-0.067 0.717,-0.101 1.051,-0.101 0.267,0 0.566,-0.033 0.899,-0.1 0.334,-0.067 0.7,-0.15 1.101,-0.25 0.366,-0.101 0.75,-0.217 1.149,-0.351 0.367,-0.133 0.75,-0.283 1.15,-0.449 0.399,-0.2 0.783,-0.4 1.149,-0.601 0.334,-0.2 0.667,-0.399 1,-0.6 0.301,-0.233 0.65,-0.45 1.051,-0.65 0.366,-0.2 0.767,-0.399 1.199,-0.6 0.434,-0.233 0.867,-0.434 1.301,-0.601 0.433,-0.166 0.883,-0.333 1.35,-0.5 0.434,-0.166 0.85,-0.3 1.25,-0.399 0.434,-0.101 0.833,-0.184 1.2,-0.25 0.633,-0.134 1.267,-0.267 1.899,-0.4 0.634,-0.133 1.25,-0.283 1.851,-0.45 0.566,-0.166 1.133,-0.333 1.7,-0.5 0.566,-0.199 1.133,-0.416 1.699,-0.649 0.534,-0.233 1.067,-0.467 1.601,-0.7 0.566,-0.267 1.116,-0.55 1.649,-0.85 0.534,-0.334 1.084,-0.667 1.65,-1 0.566,-0.334 1.15,-0.7 1.75,-1.101 1.333,-0.899 3.05,-1.7 5.15,-2.399 1.066,-0.367 2.233,-0.717 3.5,-1.051 1.267,-0.333 2.633,-0.633 4.1,-0.899 l 52,-13.2 3.25,-1.3 c 0.4,-0.2 0.7,-0.4 0.9,-0.601 0.166,-0.166 0.267,-0.383 0.3,-0.649 0,-0.3 -0.084,-0.684 -0.25,-1.15 l -0.25,-0.85 -0.45,-1 c -0.2,-0.5 -0.384,-0.983 -0.55,-1.45 -0.167,-0.467 -0.3,-0.917 -0.4,-1.35 -0.1,-0.434 -0.184,-0.867 -0.25,-1.301 -0.066,-0.433 -0.116,-0.833 -0.149,-1.199 -0.034,-0.434 -0.034,-0.834 0,-1.2 0,-0.367 0.033,-0.717 0.1,-1.05 0.066,-0.367 0.15,-0.7 0.25,-1 0.101,-0.333 0.234,-0.632 0.401,-0.899 z"
   id="path3"
   style="fill:#010101;fill-rule:evenodd" />
    
</svg>